<?xml version="1.0" standalone="no"?>
<!DOCTYPE svg PUBLIC "-//W3C//DTD SVG 20010904//EN"
 "http://www.w3.org/TR/2001/REC-SVG-20010904/DTD/svg10.dtd">
<svg version="1.0" xmlns="http://www.w3.org/2000/svg"
 width="256.000000pt" height="256.000000pt" viewBox="0 0 256.000000 256.000000"
 preserveAspectRatio="xMidYMid meet">
<metadata>
Created by potrace 1.11, written by Peter Selinger 2001-2013
</metadata>
<g transform="translate(0.000000,256.000000) scale(0.100000,-0.100000)"
fill="#000000" stroke="none">
<path d="M0 1280 l0 -1280 1280 0 1280 0 0 1280 0 1280 -1280 0 -1280 0 0
-1280z m660 465 c19 -10 36 -18 37 -20 3 -1 -27 -96 -32 -103 -1 -1 -24 8 -51
19 -68 31 -162 32 -201 3 -36 -27 -57 -83 -49 -128 11 -56 51 -93 159 -148
127 -63 153 -83 185 -137 20 -35 27 -61 30 -125 3 -71 1 -87 -20 -126 -31 -57
-94 -105 -165 -126 -76 -22 -190 -15 -260 16 -29 12 -53 24 -53 25 0 13 44
115 49 112 96 -52 174 -66 236 -42 80 30 111 99 81 179 -20 51 -42 69 -172
134 -149 75 -194 134 -194 252 0 116 58 194 170 231 44 15 211 4 250 -16z
m1504 -9 c32 -15 60 -34 62 -41 4 -10 -26 -85 -41 -102 -1 -2 -28 12 -61 30
-51 27 -69 32 -130 32 -140 0 -242 -86 -280 -235 -20 -78 -15 -210 11 -282 21
-60 83 -130 138 -157 85 -41 201 -37 261 10 25 20 26 24 26 125 l0 104 -60 0
-60 0 0 50 0 50 125 0 125 0 0 -195 0 -194 -44 -26 c-117 -69 -326 -84 -439
-32 -146 66 -227 220 -227 427 0 149 34 248 116 339 85 95 182 133 330 128 75
-2 100 -7 148 -31z m-644 -41 l0 -55 -150 0 -150 0 0 -390 0 -390 -65 0 -65 0
0 390 0 390 -140 0 -140 0 0 55 0 55 355 0 355 0 0 -55z"/>
</g>
</svg>
