<?xml version="1.0" standalone="no"?>
<!DOCTYPE svg PUBLIC "-//W3C//DTD SVG 20010904//EN"
 "http://www.w3.org/TR/2001/REC-SVG-20010904/DTD/svg10.dtd">
<svg version="1.0" xmlns="http://www.w3.org/2000/svg"
 width="256.000000pt" height="256.000000pt" viewBox="0 0 256.000000 256.000000"
 preserveAspectRatio="xMidYMid meet">
<metadata>
Created by potrace 1.11, written by Peter Selinger 2001-2013
</metadata>
<g transform="translate(0.000000,256.000000) scale(0.100000,-0.100000)"
fill="#000000" stroke="none">
<path d="M695 1908 c-106 -21 -155 -41 -215 -89 l-60 -49 -125 0 c-114 0 -125
-2 -125 -18 0 -10 -4 -22 -10 -28 -5 -5 -12 -35 -16 -66 l-7 -57 34 -15 c32
-14 33 -15 12 -21 -34 -11 -29 -35 8 -35 16 0 49 -4 72 -10 23 -5 94 -17 157
-26 174 -26 252 -42 210 -43 -19 -1 -78 4 -130 9 -338 38 -364 39 -378 22 -20
-26 -9 -36 44 -45 27 -5 83 -16 124 -24 86 -18 121 -39 50 -30 -25 4 -81 9
-125 13 -44 3 -84 8 -88 11 -18 11 -37 -21 -37 -65 0 -29 -6 -52 -18 -65 -14
-16 -17 -39 -17 -132 0 -70 4 -117 12 -126 6 -8 14 -35 18 -60 4 -25 17 -63
29 -85 26 -47 50 -53 211 -53 61 0 133 -4 161 -10 29 -6 105 -13 170 -17 112
-7 131 -18 44 -26 -19 -1 118 -5 305 -9 345 -6 1516 -1 1524 7 12 12 -19 18
-114 22 -58 3 -105 7 -104 11 1 21 63 52 106 54 73 4 95 24 48 45 -14 6 -25
18 -25 27 0 8 -5 15 -11 15 -7 0 -9 11 -5 33 24 115 13 231 -31 320 -19 38
-32 34 -23 -8 10 -42 -4 -53 -80 -62 l-49 -6 6 39 c7 47 16 59 67 92 l40 25
-36 31 c-37 32 -160 80 -195 75 -10 -1 -31 3 -48 10 -16 7 -42 15 -57 18 -33
6 -38 23 -7 23 17 0 20 5 17 33 -2 27 -8 33 -31 35 -16 2 -35 -2 -43 -9 -13
-10 -32 5 -124 97 -60 60 -136 125 -168 144 -63 38 -149 70 -188 70 -28 0 -32
-17 -6 -23 9 -2 6 -2 -8 0 -14 2 -164 8 -335 12 -212 4 -317 11 -332 19 -24
13 -27 13 -98 0z m-62 -93 c-13 -28 -25 -37 -57 -46 -23 -5 -50 -14 -61 -19
-11 -4 -29 -11 -39 -14 -17 -6 -17 -5 -5 10 33 41 125 104 151 104 l28 0 -17
-35z m122 18 c19 -9 35 -20 35 -24 0 -8 -109 -23 -116 -16 -9 8 19 57 32 57 7
0 29 -8 49 -17z m752 2 c132 -17 182 -40 263 -124 l55 -56 -190 -7 c-191 -6
-263 -14 -430 -43 -133 -23 -145 -26 -152 -37 -4 -7 6 -8 28 -4 19 4 75 11
124 16 306 32 448 37 595 20 74 -8 88 -13 114 -40 37 -36 19 -40 -39 -9 -36
19 -58 21 -225 23 -156 1 -197 -2 -260 -19 -63 -17 -107 -20 -274 -20 l-199 0
-10 30 c-4 17 -15 57 -22 90 -7 33 -18 78 -24 100 -5 22 -9 41 -7 42 1 2 59 7
127 13 82 7 175 7 274 0 187 -12 245 -12 245 -1 0 7 -34 12 -255 31 l-80 7
116 1 c63 1 165 -5 226 -13z m-707 -76 c0 -5 -26 -8 -57 -8 -54 2 -55 2 -18 8
66 10 75 10 75 0z m-123 -15 c-3 -3 -12 -4 -19 -1 -8 3 -5 6 6 6 11 1 17 -2
13 -5z m-319 -45 c-80 -100 -86 -105 -105 -93 -12 8 -19 26 -21 59 -5 73 -3
75 83 75 l76 0 -33 -41z m212 31 c-19 -13 -30 -13 -30 0 0 6 10 10 23 10 18 0
19 -2 7 -10z m-370 -45 c0 -38 -3 -45 -20 -45 -21 0 -21 7 -3 73 9 33 23 17
23 -28z m307 29 c-3 -3 -12 -4 -19 -1 -8 3 -5 6 6 6 11 1 17 -2 13 -5z m300
-32 c7 -4 15 -33 19 -65 6 -49 4 -57 -10 -57 -9 0 -22 11 -28 25 -24 52 -130
20 -113 -34 5 -18 15 -21 56 -21 30 0 49 -4 49 -11 0 -8 -13 -10 -37 -5 -21 3
-62 9 -91 12 l-52 7 5 36 c3 20 11 55 17 79 l11 42 81 0 c44 0 86 -4 93 -8z
m-237 -8 c0 -3 -8 -35 -17 -70 l-17 -65 -66 6 c-154 14 -161 19 -119 80 l21
30 -7 -40 c-6 -37 -5 -39 9 -20 8 11 16 25 16 32 0 18 19 27 90 39 79 15 90
16 90 8z m1103 -121 c-7 -2 -21 -2 -30 0 -10 3 -4 5 12 5 17 0 24 -2 18 -5z
m-137 -17 c-27 -7 -51 -17 -54 -24 -4 -13 -46 -15 -76 -3 -14 5 -16 10 -7 15
17 11 98 24 146 24 l40 0 -49 -12z m301 -2 c-3 -3 -12 -4 -19 -1 -8 3 -5 6 6
6 11 1 17 -2 13 -5z m-602 -53 c91 -26 168 -56 208 -84 42 -28 28 -29 -29 -2
-95 46 -206 77 -279 79 -38 1 -86 7 -105 14 -19 6 -46 13 -60 16 -14 2 22 3
80 2 68 -2 133 -11 185 -25z m-21 -47 c30 -20 8 -17 -39 7 -34 17 -36 19 -11
14 16 -3 39 -13 50 -21z m363 10 c-3 -3 -12 -4 -19 -1 -8 3 -5 6 6 6 11 1 17
-2 13 -5z m623 -39 c8 -11 18 -29 23 -40 7 -19 7 -19 -8 -1 -8 11 -26 32 -40
48 -14 15 -25 31 -25 34 0 9 32 -17 50 -41z m-532 4 c26 -11 65 -29 88 -40 32
-15 63 -19 157 -19 114 0 117 1 117 22 0 25 14 15 24 -17 6 -19 2 -20 -106
-17 -72 3 -119 0 -133 -8 -19 -10 -29 -7 -76 22 -55 35 -99 57 -134 69 -18 6
-18 7 -2 8 10 1 39 -8 65 -20z m-637 -30 c29 -6 66 -18 83 -25 30 -14 28 -14
-40 -12 -61 3 -71 1 -65 -12 4 -8 15 -32 25 -54 9 -21 24 -75 32 -120 17 -97
17 -96 4 -96 -5 0 -10 10 -10 23 0 12 -10 55 -22 96 -16 54 -32 85 -60 114
-34 36 -41 39 -74 34 -21 -4 -41 -12 -45 -19 -4 -7 -10 -10 -14 -7 -3 3 4 17
15 32 25 32 25 37 -2 37 -19 0 -20 2 -8 10 20 13 117 13 181 -1z m230 -44 c3
-22 10 -49 14 -60 l8 -20 -23 20 c-22 19 -70 88 -70 100 0 4 15 5 33 3 29 -3
33 -7 38 -43z m-1007 -10 c13 -22 30 -65 39 -95 38 -127 55 -200 48 -200 -11
0 -63 101 -87 165 -19 53 -57 119 -73 130 -6 3 -20 1 -31 -5 -28 -15 -25 -4 7
26 38 35 70 29 97 -21z m1134 24 c102 -27 138 -45 168 -84 13 -17 24 -34 24
-37 0 -5 -122 -1 -207 8 -44 4 -52 9 -61 32 -22 58 -25 102 -6 102 2 0 39 -9
82 -21z m-1177 -119 c23 -48 30 -136 19 -226 -11 -84 -35 -137 -66 -142 -17
-3 -17 -2 3 12 33 24 53 98 53 194 0 102 -15 156 -49 184 l-26 20 25 -4 c17
-2 30 -14 41 -38z m755 30 c8 0 14 -4 14 -8 0 -5 -12 -7 -27 -5 -53 7 -109
-43 -140 -125 l-14 -37 5 38 c9 67 92 155 134 141 8 -2 20 -4 28 -4z m782 3
c-26 -2 -71 -2 -100 0 -29 2 -8 3 47 3 55 0 79 -1 53 -3z m260 0 c-32 -2 -86
-2 -120 0 -35 2 -9 3 57 3 66 0 94 -1 63 -3z m175 0 c-18 -2 -48 -2 -65 0 -18
2 -4 4 32 4 36 0 50 -2 33 -4z m-1645 -50 c-27 -2 -69 -2 -95 0 -27 2 -5 3 47
3 52 0 74 -1 48 -3z m1215 0 c-13 -2 -33 -2 -45 0 -13 2 -3 4 22 4 25 0 35 -2
23 -4z m195 0 c-21 -2 -57 -2 -80 0 -24 2 -7 4 37 4 44 0 63 -2 43 -4z m69 1
c-3 -3 -12 -4 -19 -1 -8 3 -5 6 6 6 11 1 17 -2 13 -5z m46 -1 c-7 -2 -19 -2
-25 0 -7 3 -2 5 12 5 14 0 19 -2 13 -5z m105 0 c-10 -2 -26 -2 -35 0 -10 3 -2
5 17 5 19 0 27 -2 18 -5z m-1478 -11 c0 -4 -17 -6 -37 -4 -59 5 -63 10 -10 11
26 1 47 -3 47 -7z m-500 -142 c0 -22 -4 -40 -10 -40 -5 0 -10 18 -10 40 0 22
5 40 10 40 6 0 10 -18 10 -40z m791 3 c19 -52 -12 -101 -46 -73 -28 23 -12
100 21 100 8 0 19 -12 25 -27z m1279 17 c14 -7 20 -20 19 -43 l-1 -32 -10 28
-10 27 -289 0 c-179 0 -298 -4 -309 -10 -11 -6 -26 -23 -34 -38 l-15 -27 -1
31 c0 59 14 63 236 66 109 2 243 4 297 6 55 1 106 -2 117 -8z m-1470 -40 c-5
-22 -8 -27 -9 -13 -1 21 9 56 14 51 2 -2 0 -19 -5 -38z m495 -4 c18 -13 11
-14 -58 -13 -42 1 -77 5 -77 9 0 20 110 23 135 4z m493 -13 c-15 -2 -42 -2
-60 0 -18 2 -6 4 27 4 33 0 48 -2 33 -4z m392 -9 c0 -8 -5 -12 -10 -9 -6 4 -8
11 -5 16 9 14 15 11 15 -7z m-960 -4 c0 -5 -7 -10 -15 -10 -8 0 -15 5 -15 10
0 6 7 10 15 10 8 0 15 -4 15 -10z m960 -32 c0 -10 -53 -12 -242 -8 l-243 5
240 5 c132 3 241 7 243 8 1 1 2 -4 2 -10z m-1741 -20 c25 -13 69 -25 96 -29
l50 -6 -65 -1 c-90 -2 -166 18 -162 41 5 23 26 22 81 -5z m149 15 c-10 -2 -28
-2 -40 0 -13 2 -5 4 17 4 22 1 32 -1 23 -4z m182 -19 c0 -9 -15 -11 -57 -7
-89 9 -100 23 -15 22 51 -2 72 -6 72 -15z m1410 -20 c0 -8 -5 -12 -10 -9 -6 4
-8 11 -5 16 9 14 15 11 15 -7z m-1261 -49 c6 -3 11 -12 11 -18 -1 -7 -10 -1
-20 12 -11 13 -20 31 -19 40 0 11 3 10 9 -5 5 -12 13 -25 19 -29z m311 15 c80
-28 95 -29 260 -31 170 -2 167 -2 -90 -10 -146 -4 -269 -8 -275 -9 -28 -6 -35
2 -35 40 0 37 2 40 28 40 15 0 65 -13 112 -30z m-602 -10 c184 -27 183 -28
-20 -29 -191 -1 -196 -1 -191 19 5 18 14 20 75 20 38 0 99 -4 136 -10z m1359
-60 l26 -20 -114 0 c-174 0 -399 12 -399 21 0 5 71 10 158 12 86 1 190 4 230
5 61 2 78 -2 99 -18z m-981 -5 c-11 -8 -27 -15 -35 -15 -10 0 -7 6 9 14 33 19
50 19 26 1z"/>
<path d="M1235 1729 c-44 -7 -87 -15 -188 -36 -15 -3 -30 -10 -34 -15 -6 -11
-6 -11 267 16 85 9 203 19 263 23 59 3 107 10 107 14 0 11 -347 9 -415 -2z"/>
</g>
</svg>
